<?xml version="1.0" standalone="no"?>
<!DOCTYPE svg PUBLIC "-//W3C//DTD SVG 20010904//EN"
 "http://www.w3.org/TR/2001/REC-SVG-20010904/DTD/svg10.dtd">
<svg version="1.0" xmlns="http://www.w3.org/2000/svg"
 width="568.000000pt" height="439.000000pt" viewBox="0 0 568.000000 439.000000"
 preserveAspectRatio="xMidYMid meet">

<g transform="translate(0.000000,439.000000) scale(0.100000,-0.100000)"
fill="#000000" stroke="none">
<path d="M1490 4023 c0 -62 3 -74 22 -87 28 -20 38 -12 38 29 0 40 -12 71 -39
105 l-21 25 0 -72z"/>
<path d="M3495 3341 c-392 -417 -664 -700 -672 -697 -16 7 -17 -6 -1 -22 23
-23 74 -14 117 21 23 17 233 237 468 487 694 741 663 706 712 802 24 47 42 91
39 98 -2 7 -300 -303 -663 -689z"/>
<path d="M4174 4004 c-8 -19 -40 -81 -71 -137 -51 -92 -80 -127 -297 -357
-133 -140 -380 -403 -549 -583 -170 -180 -321 -334 -337 -342 -44 -23 -104
-19 -136 8 -25 22 -28 34 -21 93 1 15 -114 148 -433 495 -556 605 -688 748
-715 778 l-23 23 1 -78 c1 -54 -4 -92 -15 -119 -14 -34 -17 -79 -18 -285 0
-259 -2 -270 -46 -270 -18 0 -23 -7 -27 -42 -5 -54 9 -70 62 -72 23 -1 52 -11
66 -22 13 -10 225 -237 471 -504 685 -744 691 -750 723 -750 21 0 46 19 107
83 180 186 1140 1231 1154 1256 12 21 16 83 20 311 l5 285 47 98 c45 93 68
167 54 167 -4 0 -14 -16 -22 -36z"/>
<path d="M4164 3863 c-15 -40 -18 -95 -23 -344 l-6 -296 -37 -54 c-36 -53
-1194 -1312 -1239 -1348 -13 -10 -39 -26 -56 -35 -18 -9 -33 -22 -33 -29 0 -7
16 -29 36 -48 l36 -34 94 100 c52 55 356 384 676 730 l581 630 1 387 c1 214
-2 388 -6 388 -3 0 -14 -21 -24 -47z"/>
<path d="M1488 2955 c-3 -4 -4 -34 -1 -68 4 -45 10 -67 25 -79 11 -10 24 -15
29 -12 12 7 12 67 -1 96 -13 32 -45 70 -52 63z"/>
<path d="M3495 2194 c-363 -387 -656 -692 -662 -689 -16 6 -17 -7 -1 -23 18
-18 59 -15 93 7 17 10 109 101 205 202 399 421 917 976 937 1004 27 39 93 169
93 184 0 6 -3 11 -7 10 -5 0 -300 -313 -658 -695z"/>
<path d="M4171 2855 c-21 -60 -113 -218 -149 -260 -20 -22 -267 -286 -550
-587 -308 -328 -527 -553 -547 -562 -45 -22 -97 -20 -128 4 -32 26 -40 50 -27
84 9 25 4 34 -93 139 -56 62 -311 339 -566 617 -255 278 -477 519 -493 535
l-29 30 7 -61 c5 -49 2 -74 -15 -123 -20 -58 -21 -80 -21 -429 0 -388 0 -392
-46 -392 -18 0 -22 -7 -27 -42 -7 -52 5 -68 52 -68 20 -1 47 -7 60 -14 13 -7
285 -296 605 -642 496 -537 585 -629 611 -632 38 -4 20 -22 715 731 289 312
533 585 542 605 16 33 18 79 18 412 0 221 5 393 11 420 6 25 28 80 49 123 40
79 60 147 43 147 -5 0 -15 -16 -22 -35z"/>
<path d="M4165 2723 c-17 -44 -19 -85 -25 -473 -4 -335 -8 -430 -19 -450 -22
-40 -78 -106 -216 -255 -72 -77 -323 -349 -559 -605 -235 -256 -442 -478 -460
-493 -17 -16 -51 -39 -75 -51 l-44 -23 38 -41 c20 -23 41 -42 46 -42 5 0 310
326 678 724 l669 725 0 515 c-1 284 -4 516 -7 516 -4 0 -15 -21 -26 -47z"/>
</g>
</svg>
